<svg width="500" height="500" viewBox="0 0 500 500" fill="none" xmlns="http://www.w3.org/2000/svg">
<g clip-path="url(#clip0_14674_347578)">
<path d="M405 140.262H353.037L432.31 254.31L352.917 369.942H404.674L475.85 266.278C480.858 258.984 480.831 249.359 475.78 242.093L405 140.262Z" fill="#A5A8F3"/>
<path d="M313.421 140.262H261.459L340.731 254.31L261.339 369.942H313.096L384.271 266.278C389.28 258.984 389.252 249.359 384.201 242.093L313.421 140.262Z" fill="#797DED"/>
<path fill-rule="evenodd" clip-rule="evenodd" d="M64.2189 159.188C85.7643 137.646 114.924 125.52 145.36 125.52C182.471 125.52 217.237 143.515 238.836 173.748L265.113 210.53L294.833 255.102L265.113 299.673L238.836 336.456C217.237 366.689 182.471 384.684 145.36 384.684C114.924 384.684 85.7642 372.557 64.2188 351.016L57.1609 343.959C33.6225 320.424 20.4219 288.431 20.4219 255.102C20.4219 221.772 33.6225 189.779 57.1609 166.245L64.2189 159.188ZM145.36 168.129C126.327 168.129 108.02 175.709 94.4371 189.289L87.3791 196.346C71.8773 211.845 63.1174 232.993 63.1174 255.102C63.1174 277.21 71.8773 298.358 87.3791 313.857L94.4371 320.914C108.02 334.495 126.327 342.075 145.36 342.075C168.557 342.075 190.419 330.829 204.071 311.72L229.949 275.496L243.548 255.102L229.949 234.707L204.071 198.484C190.419 179.374 168.557 168.129 145.36 168.129Z" fill="#99C97D"/>
</g>
<defs>
<clipPath id="clip0_14674_347578">
<rect x="20.3906" y="122.451" width="459.184" height="265.306" rx="8.75" fill="white"/>
</clipPath>
</defs>
</svg>
